<?xml version="1.0" encoding="UTF-8"?>
<svg xmlns="http://www.w3.org/2000/svg" version="1.1" viewBox="0 0 203 56">
  <defs>
    <style>
      .cls-1 {
        fill: #00c1f2;
        mix-blend-mode: multiply;
      }

      .cls-1, .cls-2, .cls-3, .cls-4, .cls-5 {
        stroke-width: 0px;
      }

      .cls-2 {
        fill: none;
      }

      .cls-3 {
        fill: #1b1425;
      }

      .cls-4 {
        fill: #2b2523;
      }

      .cls-6 {
        isolation: isolate;
      }

      .cls-5 {
        fill: #ff1c22;
      }
    </style>
  </defs>
  <g class="cls-6">
    <g id="Capa_1" data-name="Capa 1">
      <g>
        <g>
          <rect class="cls-2" x="26" y="25.5" width="5.1" height="5.1" transform="translate(-11.5 28.4) rotate(-45)"/>
          <polygon class="cls-2" points="23.9 19.8 20.7 16.5 9.3 28 20.7 39.5 23.9 36.2 15.7 28 23.9 19.8"/>
          <polygon class="cls-2" points="33.2 36.2 36.4 39.5 47.9 28 36.4 16.5 33.2 19.8 41.4 28 33.2 36.2"/>
          <polygon class="cls-1" points="28.6 24.4 23.9 19.8 15.7 28 23.9 36.2 28.6 31.6 25 28 28.6 24.4"/>
          <polygon class="cls-1" points="57.1 28 36.4 7.3 28.6 15.2 33.2 19.8 36.4 16.5 47.9 28 36.4 39.5 33.2 36.2 28.6 40.8 36.4 48.7 57.1 28"/>
          <polygon class="cls-5" points="32.2 28 28.6 31.6 33.2 36.2 41.4 28 33.2 19.8 28.6 24.4 32.2 28"/>
          <polygon class="cls-5" points="20.7 39.5 9.3 28 20.7 16.5 23.9 19.8 28.6 15.2 20.7 7.3 0 28 20.7 48.7 28.6 40.8 23.9 36.2 20.7 39.5"/>
          <rect class="cls-3" x="25.3" y="32.9" width="6.6" height="6.6" transform="translate(-17.2 30.8) rotate(-45)"/>
          <rect class="cls-3" x="25.3" y="16.5" width="6.6" height="6.6" transform="translate(-5.6 26) rotate(-45)"/>
        </g>
        <g>
          <path class="cls-4" d="M62.4,17.2v-3.6c0-1.3,1.1-2.3,2.4-2.3s2.3,1,2.4,2.1c0,.3-.2.5-.5.6-.3,0-.6-.2-.7-.5,0-.7-.6-1.2-1.2-1.2s-1.2.6-1.2,1.3v3.6c0,.7.6,1.3,1.2,1.3s1.1-.5,1.2-1.2c0-.3.3-.5.7-.5.3,0,.5.3.5.6-.2,1.2-1.3,2.1-2.4,2.1s-2.4-1-2.4-2.3Z"/>
          <path class="cls-4" d="M68.7,17.2v-3.6c0-1.3,1.1-2.3,2.4-2.3s2.4,1.1,2.4,2.3v3.6c0,1.3-1.1,2.3-2.4,2.3s-2.4-1-2.4-2.3ZM69.9,13.6v3.6c0,.7.6,1.3,1.2,1.3s1.2-.6,1.2-1.3v-3.6c0-.7-.6-1.3-1.2-1.3s-1.2.6-1.2,1.3Z"/>
          <path class="cls-4" d="M80,18.9c0,.3-.3.5-.6.5h-3.2c-.3,0-.6-.2-.6-.5v-7.1c0-.3.3-.5.6-.5s.6.2.6.5v6.6h2.6c.3,0,.6.2.6.5Z"/>
          <path class="cls-4" d="M86,19c0,.3-.3.5-.6.5h-3.2c-.3,0-.6-.2-.6-.5v-7.1c0-.3.3-.5.6-.5h3.2c.3,0,.6.2.6.5s-.3.5-.6.5h-2.6v2.2h2.2c.3,0,.6.2.6.5s-.3.5-.6.5h-2.2v2.8h2.6c.3,0,.6.2.6.5Z"/>
          <path class="cls-4" d="M87.4,17.2v-3.6c0-1.3,1.1-2.3,2.4-2.3s2.1.8,2.4,1.8c.2.7-.9,1.1-1.2.3,0-.6-.6-1.1-1.2-1.1s-1.2.6-1.2,1.3v3.6c0,.7.6,1.3,1.2,1.3s1.3-.5,1.3-1.3v-1.1h-1.1c-.7,0-.8-1,0-1.1h1.6c.3,0,.6.2.6.5v1.6c0,1.3-1.1,2.3-2.4,2.3s-2.4-1-2.4-2.3Z"/>
          <path class="cls-4" d="M97.9,19c0,.3-.3.5-.6.5h-2.8c-.3,0-.6-.2-.6-.5s.3-.5.6-.5h.8v-6.1h-.8c-.3,0-.6-.2-.6-.5s.3-.5.6-.5h2.8c.3,0,.6.2.6.5s-.3.5-.6.5h-.8v6.1h.8c.3,0,.6.2.6.5Z"/>
          <path class="cls-4" d="M99.6,17.2v-3.6c0-1.3,1.1-2.3,2.4-2.3s2.4,1.1,2.4,2.3v3.6c0,1.3-1.1,2.3-2.4,2.3s-2.4-1-2.4-2.3ZM100.8,13.6v3.6c0,.7.6,1.3,1.2,1.3s1.2-.6,1.2-1.3v-3.6c0-.7-.6-1.3-1.2-1.3s-1.2.6-1.2,1.3Z"/>
          <path class="cls-4" d="M63.1,31.6c-.3,0-.6-.2-.6-.5v-7.1c0-.3.3-.5.6-.5h1.7c1.3,0,2.4,1,2.4,2.3v3.5c0,1.3-1.1,2.4-2.4,2.4h-1.7ZM63.7,30.6h1.1c.7,0,1.2-.6,1.2-1.3v-3.5c0-.7-.5-1.3-1.2-1.3h-1.1v6.1Z"/>
          <path class="cls-4" d="M73.6,31.1c0,.3-.3.5-.6.5h-3.2c-.3,0-.6-.2-.6-.5v-7.1c0-.3.3-.5.6-.5h3.2c.3,0,.6.2.6.5s-.3.5-.6.5h-2.6v2.2h2.2c.3,0,.6.2.6.5s-.3.5-.6.5h-2.2v2.8h2.6c.3,0,.6.2.6.5Z"/>
          <path class="cls-4" d="M81.9,23.4c.3,0,.6.2.6.5s-.3.5-.6.5h-1.3v6.7c0,.3-.3.5-.6.5s-.6-.2-.6-.5v-6.7h-1.3c-.3,0-.6-.2-.6-.5s.3-.5.6-.5h3.8Z"/>
          <path class="cls-4" d="M89.3,31c0,.3-.2.7-.6.7s-.5-.1-.6-.4l-1.1-3.5s-.2,0-1.3,0v3.3c0,.3-.3.5-.6.5s-.6-.2-.6-.5v-7.2c0-.3.3-.5.6-.5h1.9c1.3,0,2.3,1,2.3,2.2s-.5,1.5-1.2,1.9l1.1,3.4h0ZM87,26.8c.6,0,1.1-.5,1.1-1.1s-.5-1.1-1.1-1.1h-1.3v2.3h1.3Z"/>
          <path class="cls-4" d="M96,31c0,.3-.2.7-.6.7s-.5-.1-.6-.4l-.5-1.5h-2.3c-.2.5-.3,1-.5,1.5,0,.2-.3.4-.6.4s-.7-.3-.6-.7h0s2.2-7.3,2.2-7.3c0-.2.3-.4.6-.4s.5.2.6.4l2.2,7.3h0ZM94,28.7l-.8-3.2-.9,3.2h1.7Z"/>
          <path class="cls-4" d="M98.1,31.6c-.3,0-.6-.2-.6-.5v-7.1c0-.3.3-.5.6-.5h1.7c1.3,0,2.4,1,2.4,2.3v3.5c0,1.3-1.1,2.4-2.4,2.4h-1.7ZM98.7,30.6h1.1c.7,0,1.2-.6,1.2-1.3v-3.5c0-.7-.5-1.3-1.2-1.3h-1.1v6.1Z"/>
          <path class="cls-4" d="M104.3,29.4v-5.4c0-.3.3-.5.6-.5s.6.2.6.5v5.4c0,.7.6,1.3,1.2,1.3s1.2-.6,1.2-1.3v-5.4c0-.3.3-.5.6-.5s.6.2.6.5v5.4c0,1.3-1.1,2.3-2.4,2.3s-2.4-1.1-2.4-2.3Z"/>
          <path class="cls-4" d="M111.2,29.4v-3.6c0-1.3,1.1-2.3,2.4-2.3s2.3,1,2.4,2.1c0,.3-.2.5-.5.6-.3,0-.6-.2-.7-.5,0-.7-.6-1.2-1.2-1.2s-1.2.6-1.2,1.3v3.6c0,.7.6,1.3,1.2,1.3s1.1-.5,1.2-1.2c0-.3.3-.5.7-.5.3,0,.5.3.5.6-.2,1.2-1.3,2.1-2.4,2.1s-2.4-1-2.4-2.3Z"/>
          <path class="cls-4" d="M121.3,23.4c.3,0,.6.2.6.5s-.3.5-.6.5h-1.3v6.7c0,.3-.3.5-.6.5s-.6-.2-.6-.5v-6.7h-1.3c-.3,0-.6-.2-.6-.5s.3-.5.6-.5h3.8Z"/>
          <path class="cls-4" d="M123,29.4v-3.6c0-1.3,1.1-2.3,2.4-2.3s2.4,1.1,2.4,2.3v3.6c0,1.3-1.1,2.3-2.4,2.3s-2.4-1-2.4-2.3ZM124.2,25.7v3.6c0,.7.6,1.3,1.2,1.3s1.2-.6,1.2-1.3v-3.6c0-.7-.6-1.3-1.2-1.3s-1.2.6-1.2,1.3Z"/>
          <path class="cls-4" d="M134.6,31c0,.3-.2.7-.6.7s-.5-.1-.6-.4l-1.1-3.5s-.2,0-1.3,0v3.3c0,.3-.3.5-.6.5s-.6-.2-.6-.5v-7.2c0-.3.3-.5.6-.5h1.9c1.3,0,2.3,1,2.3,2.2s-.5,1.5-1.1,1.9l1.1,3.4h0ZM132.3,26.8c.6,0,1.1-.5,1.1-1.1s-.5-1.1-1.1-1.1h-1.3v2.3h1.3Z"/>
          <path class="cls-4" d="M140.8,31.1c0,.3-.3.5-.6.5h-3.2c-.3,0-.6-.2-.6-.5v-7.1c0-.3.3-.5.6-.5h3.2c.3,0,.6.2.6.5s-.3.5-.6.5h-2.6v2.2h2.2c.3,0,.6.2.6.5s-.3.5-.6.5h-2.2v2.8h2.6c.3,0,.6.2.6.5Z"/>
          <path class="cls-4" d="M142.6,29.7c0-.3.3-.5.6-.5s.6.2.6.5c0,.5.4,1,1.2,1s1.2-.4,1.2-1-.1-.9-.8-1.4l-.3-.2c-.8-.4-1-.6-1.2-.7-.7-.5-1.2-1.1-1.2-1.9,0-1.3,1.1-2,2.3-2s2.3.7,2.3,2-.3.5-.6.5-.6-.2-.6-.5c0-.5-.3-.9-1.1-.9s-1.1.5-1.1,1,0,.6.6,1c.2.1.7.4,1.5.9.9.5,1.4,1.3,1.4,2.3s-1.2,2.1-2.4,2.1-2.4-1-2.4-2Z"/>
          <path class="cls-4" d="M152.1,31.2v-7.2c0-.3.3-.5.6-.5h1.8c1.3,0,2.3,1,2.3,2.3s-1,2.3-2.3,2.3h-1.2v3.2c0,.3-.3.5-.6.5s-.6-.2-.6-.5ZM153.3,26.9h1.2c.6,0,1.1-.5,1.1-1.2s-.5-1.2-1.1-1.2h-1.2v2.4Z"/>
          <path class="cls-4" d="M158.5,29.4v-5.4c0-.3.3-.5.6-.5s.6.2.6.5v5.4c0,.7.6,1.3,1.2,1.3s1.2-.6,1.2-1.3v-5.4c0-.3.3-.5.6-.5s.6.2.6.5v5.4c0,1.3-1.1,2.3-2.4,2.3s-2.4-1.1-2.4-2.3Z"/>
          <path class="cls-4" d="M169.1,27.2c.6.5,1,1.2,1,2,0,1.6-1.1,2.5-2.5,2.5h-1.8c-.3,0-.6-.2-.6-.5v-7.1c0-.3.3-.5.6-.5h1.8c1.2,0,2.2.9,2.2,2.2s-.3,1.2-.7,1.6ZM166.4,24.5v2.3h1.2c.6,0,1-.5,1-1.2s-.5-1.1-1-1.1h-1.2ZM168.9,29.2c0-.8-.6-1.4-1.3-1.4h-1.2v2.9h1.2c.7,0,1.3-.5,1.3-1.5Z"/>
          <path class="cls-4" d="M176.5,31c0,.3-.3.5-.6.5h-3.2c-.3,0-.6-.2-.6-.5v-7.1c0-.3.3-.5.6-.5s.6.2.6.5v6.6h2.6c.3,0,.6.2.6.5Z"/>
          <path class="cls-4" d="M181.6,31.1c0,.3-.3.5-.6.5h-2.8c-.3,0-.6-.2-.6-.5s.3-.5.6-.5h.8v-6.1h-.8c-.3,0-.6-.2-.6-.5s.3-.5.6-.5h2.8c.3,0,.6.2.6.5s-.3.5-.6.5h-.8v6.1h.8c.3,0,.6.2.6.5Z"/>
          <path class="cls-4" d="M183.2,29.4v-3.6c0-1.3,1.1-2.3,2.4-2.3s2.3,1,2.4,2.1c0,.3-.2.5-.5.6-.3,0-.6-.2-.7-.5,0-.7-.6-1.2-1.2-1.2s-1.2.6-1.2,1.3v3.6c0,.7.6,1.3,1.2,1.3s1.1-.5,1.2-1.2c0-.3.3-.5.7-.5.3,0,.5.3.5.6-.2,1.2-1.3,2.1-2.4,2.1s-2.4-1-2.4-2.3Z"/>
          <path class="cls-4" d="M189.5,29.4v-3.6c0-1.3,1.1-2.3,2.4-2.3s2.4,1.1,2.4,2.3v3.6c0,1.3-1.1,2.3-2.4,2.3s-2.4-1-2.4-2.3ZM190.7,25.7v3.6c0,.7.6,1.3,1.2,1.3s1.2-.6,1.2-1.3v-3.6c0-.7-.6-1.3-1.2-1.3s-1.2.6-1.2,1.3Z"/>
          <path class="cls-4" d="M195.9,29.7c0-.3.3-.5.6-.5s.6.2.6.5c0,.5.4,1,1.2,1s1.2-.4,1.2-1-.1-.9-.8-1.4l-.3-.2c-.8-.4-1-.6-1.2-.7-.7-.5-1.2-1.1-1.2-1.9,0-1.3,1.1-2,2.3-2s2.3.7,2.3,2-.3.5-.6.5-.6-.2-.6-.5c0-.5-.3-.9-1.1-.9s-1.1.5-1.1,1,0,.6.6,1c.2.1.7.4,1.5.9.9.5,1.4,1.3,1.4,2.3s-1.2,2.1-2.4,2.1-2.4-1-2.4-2Z"/>
          <path class="cls-4" d="M63.1,43.8c-.3,0-.6-.2-.6-.5v-7.1c0-.3.3-.5.6-.5h1.7c1.3,0,2.4,1,2.4,2.3v3.5c0,1.3-1.1,2.4-2.4,2.4h-1.7ZM63.7,42.7h1.1c.7,0,1.2-.6,1.2-1.3v-3.5c0-.7-.5-1.3-1.2-1.3h-1.1v6.1Z"/>
          <path class="cls-4" d="M73.6,43.2c0,.3-.3.5-.6.5h-3.2c-.3,0-.6-.2-.6-.5v-7.1c0-.3.3-.5.6-.5h3.2c.3,0,.6.2.6.5s-.3.5-.6.5h-2.6v2.2h2.2c.3,0,.6.2.6.5s-.3.5-.6.5h-2.2v2.8h2.6c.3,0,.6.2.6.5Z"/>
          <path class="cls-4" d="M79.6,43.2c0,.3-.3.5-.6.5h-3.2c-.3,0-.6-.2-.6-.5v-7.1c0-.3.3-.5.6-.5s.6.2.6.5v6.6h2.6c.3,0,.6.2.6.5Z"/>
          <path class="cls-4" d="M84.2,41.5v-5.5c0-.3.3-.5.6-.5s.6.2.6.5v5.5c0,.7.6,1.3,1.2,1.3s1.2-.6,1.2-1.3v-5.5c0-.3.3-.5.6-.5s.6.2.6.5v5.5c0,1.3-1.1,2.3-2.4,2.3s-2.4-1.1-2.4-2.3Z"/>
          <path class="cls-4" d="M96.7,43.1c0,.3-.2.7-.6.7s-.5-.1-.6-.4l-1.1-3.5s-.2,0-1.3,0v3.3c0,.3-.3.5-.6.5s-.6-.2-.6-.5v-7.2c0-.3.3-.5.6-.5h1.9c1.3,0,2.3,1,2.3,2.2s-.5,1.5-1.1,1.9l1.1,3.4h0ZM94.4,38.9c.6,0,1.1-.5,1.1-1.1s-.5-1.1-1.1-1.1h-1.3v2.3h1.3Z"/>
          <path class="cls-4" d="M98.5,41.5v-5.5c0-.3.3-.5.6-.5s.6.2.6.5v5.5c0,.7.6,1.3,1.2,1.3s1.2-.6,1.2-1.3v-5.5c0-.3.3-.5.6-.5s.6.2.6.5v5.5c0,1.3-1.1,2.3-2.4,2.3s-2.4-1.1-2.4-2.3Z"/>
          <path class="cls-4" d="M105.4,41.5v-3.6c0-1.3,1.1-2.3,2.4-2.3s2.1.8,2.4,1.8c.2.7-.9,1.1-1.2.3,0-.6-.6-1.1-1.2-1.1s-1.2.6-1.2,1.3v3.6c0,.7.6,1.3,1.2,1.3s1.3-.5,1.3-1.3v-1.1h-1.1c-.7,0-.8-1,0-1.1h1.6c.3,0,.6.2.6.5v1.6c0,1.3-1.1,2.3-2.4,2.3s-2.4-1-2.4-2.3Z"/>
          <path class="cls-4" d="M112.2,41.5v-5.5c0-.3.3-.5.6-.5s.6.2.6.5v5.5c0,.7.6,1.3,1.2,1.3s1.2-.6,1.2-1.3v-5.5c0-.3.3-.5.6-.5s.6.2.6.5v5.5c0,1.3-1.1,2.3-2.4,2.3s-2.4-1.1-2.4-2.3Z"/>
          <path class="cls-4" d="M124.2,43.1c0,.3-.2.7-.6.7s-.5-.1-.6-.4l-.5-1.5h-2.3c-.2.5-.3,1-.5,1.5,0,.2-.3.4-.6.4s-.7-.3-.6-.7h0s2.2-7.3,2.2-7.3c0-.2.3-.4.6-.4s.5.2.6.4l2.2,7.3h0ZM122.3,40.8l-.8-3.2-.9,3.2h1.7Z"/>
          <path class="cls-4" d="M130.1,36.2l-1.9,4.1v2.9c0,.3-.3.5-.6.5s-.6-.2-.6-.5v-2.9l-1.9-4.1c-.1-.3.1-.7.5-.7s.4.1.5.3l1.4,3.2,1.4-3.2c0-.2.3-.3.5-.3.4,0,.7.4.5.7Z"/>
          <path class="cls-4" d="M160.6,22.7c-.1-.2,0-.6.3-.7l1.6-.8c.3-.1.7,0,.8.2.1.3,0,.6-.3.7l-1.6.8c-.3.1-.7,0-.8-.2h0Z"/>
        </g>
      </g>
    </g>
  </g>
</svg>